<svg xmlns="http://www.w3.org/2000/svg" width="16" height="32" viewBox="0 0 16 32"><path fill-rule="evenodd" clip-rule="evenodd" fill="#FFF" d="M1 7h14a1 1 0 0 1 0 2H1a1 1 0 0 1 0-2zm0 5h14a1 1 0 0 1 0 2H1a1 1 0 0 1 0-2zM1 2h14a1 1 0 0 1 0 2H1a1 1 0 0 1 0-2zm.33 26.97l11.64-11.64a1.176 1.176 0 0 1 1.663 1.663l-11.64 11.64A1.176 1.176 0 0 1 1.33 28.97z"/><path fill-rule="evenodd" clip-rule="evenodd" fill="#FFF" d="M2.993 17.33l11.641 11.64a1.176 1.176 0 0 1-1.663 1.663L1.33 18.993a1.176 1.176 0 0 1 1.663-1.663z"/></svg>