<?xml version="1.0" encoding="utf-8"?>
<!-- Generator: Adobe Illustrator 16.2.1, SVG Export Plug-In . SVG Version: 6.00 Build 0)  -->
<!DOCTYPE svg PUBLIC "-//W3C//DTD SVG 1.1//EN" "http://www.w3.org/Graphics/SVG/1.1/DTD/svg11.dtd">
<svg version="1.1" id="Layer_1" xmlns="http://www.w3.org/2000/svg" xmlns:xlink="http://www.w3.org/1999/xlink" x="0px" y="0px"
	 width="16px" height="32px" viewBox="0 0 16 32" enable-background="new 0 0 16 32" xml:space="preserve">
<path fill-rule="evenodd" clip-rule="evenodd" fill="#FFFFFF" d="M1,7h14c0.552,0,1,0.448,1,1s-0.448,1-1,1H1C0.448,9,0,8.552,0,8
	S0.448,7,1,7z"/>
<path fill-rule="evenodd" clip-rule="evenodd" fill="#FFFFFF" d="M1,12h14c0.552,0,1,0.448,1,1s-0.448,1-1,1H1c-0.552,0-1-0.448-1-1
	S0.448,12,1,12z"/>
<path fill-rule="evenodd" clip-rule="evenodd" fill="#FFFFFF" d="M1,2h14c0.552,0,1,0.448,1,1s-0.448,1-1,1H1C0.448,4,0,3.552,0,3
	S0.448,2,1,2z"/>
<path fill-rule="evenodd" clip-rule="evenodd" fill="#FFFFFF" d="M1.33,28.97l11.64-11.64c0.459-0.459,1.204-0.459,1.663,0
	c0.459,0.459,0.459,1.204,0,1.663L2.993,30.633c-0.459,0.459-1.204,0.459-1.663,0C0.871,30.174,0.871,29.43,1.33,28.97z"/>
<path fill-rule="evenodd" clip-rule="evenodd" fill="#FFFFFF" d="M2.993,17.33l11.641,11.64c0.459,0.459,0.459,1.204,0,1.663
	s-1.204,0.459-1.663,0L1.33,18.993c-0.459-0.459-0.459-1.204,0-1.663C1.789,16.871,2.534,16.871,2.993,17.33z"/>
</svg>
